<?xml version="1.0" standalone="no"?>
<!DOCTYPE svg PUBLIC "-//W3C//DTD SVG 20010904//EN"
 "http://www.w3.org/TR/2001/REC-SVG-20010904/DTD/svg10.dtd">
<svg version="1.0" xmlns="http://www.w3.org/2000/svg"
 width="597.000000pt" height="597.000000pt" viewBox="0 0 597.000000 597.000000"
 preserveAspectRatio="xMidYMid meet">
<metadata>
Created by potrace 1.14, written by Peter Selinger 2001-2017
</metadata>
<g transform="translate(0.000000,597.000000) scale(0.100000,-0.100000)"
fill="#000000" stroke="none">
<path d="M2840 5646 c-108 -55 -166 -136 -192 -265 l-13 -63 -70 -42 c-38 -24
-95 -56 -125 -73 -30 -17 -142 -80 -248 -142 -106 -61 -207 -120 -225 -130
-17 -10 -149 -85 -292 -168 -740 -426 -655 -386 -790 -369 -47 6 -69 4 -100
-9 -85 -36 -138 -114 -138 -205 0 -61 14 -95 67 -155 19 -21 36 -53 39 -70 6
-41 9 -270 9 -910 1 -718 -3 -927 -17 -967 -7 -18 -34 -56 -62 -84 -67 -68
-108 -168 -100 -247 6 -71 57 -176 104 -217 96 -84 230 -109 345 -64 76 30 73
30 239 -66 68 -40 144 -84 169 -98 357 -200 1243 -721 1257 -739 7 -9 22 -44
33 -79 37 -110 131 -183 236 -184 70 0 135 24 182 69 46 44 66 79 83 144 6 25
18 52 28 60 20 17 502 301 906 532 171 98 378 217 460 264 83 48 168 95 190
104 40 18 42 18 100 -4 157 -60 331 -1 411 139 22 39 27 63 31 142 5 88 3 99
-22 152 -25 53 -63 98 -125 147 -25 19 -25 22 -30 203 -7 258 -4 1633 4 1693
3 29 14 56 24 65 48 41 73 88 78 151 9 99 -34 172 -126 215 -39 19 -121 21
-164 5 -16 -7 -37 -9 -48 -5 -11 3 -234 130 -496 281 -263 152 -610 352 -772
446 -377 217 -378 218 -385 265 -32 188 -161 309 -332 310 -50 0 -73 -6 -123
-32z m232 -136 c57 -38 82 -86 83 -155 0 -51 -4 -66 -30 -102 -41 -57 -74 -74
-143 -75 -65 0 -87 7 -128 42 -102 87 -74 248 53 306 42 20 125 12 165 -16z
m-356 -354 c7 -19 -43 -117 -171 -336 -58 -99 -105 -182 -105 -184 0 -3 -22
-41 -50 -86 -27 -45 -50 -83 -50 -84 0 -2 -39 -70 -86 -152 -47 -82 -96 -167
-109 -189 -12 -22 -105 -184 -207 -360 -102 -176 -196 -340 -210 -365 -14 -25
-49 -85 -78 -135 -29 -49 -140 -243 -247 -430 -255 -444 -400 -688 -426 -715
-19 -21 -20 -22 -30 -4 -12 22 -15 1672 -3 1789 7 73 14 89 66 144 30 32 48
66 55 101 1 8 5 31 9 50 3 19 14 40 24 46 56 35 537 316 907 529 237 137 486
281 554 322 129 76 148 83 157 59z m613 -25 c42 -21 128 -69 191 -106 63 -37
129 -75 145 -85 17 -9 194 -113 395 -230 201 -117 379 -220 395 -230 265 -154
383 -224 396 -236 9 -8 20 -38 23 -66 9 -68 29 -103 92 -164 l54 -51 1 -84 c2
-183 -2 -1542 -6 -1657 -1 -68 -5 -125 -7 -128 -18 -18 -53 26 -130 166 -14
25 -119 207 -233 405 -115 198 -260 452 -323 565 -108 194 -114 207 -108 247
3 24 9 62 12 86 12 88 -56 183 -153 212 -32 10 -67 27 -79 39 -17 17 -206 329
-307 506 -10 19 -57 98 -102 175 -115 195 -274 474 -326 573 -37 70 -42 84
-29 92 20 13 13 15 99 -29z m-198 -126 c51 -77 582 -1006 683 -1196 l40 -76
-27 -93 c-14 -51 -34 -101 -43 -111 -16 -18 -371 -228 -833 -494 -217 -125
-237 -131 -235 -68 2 52 14 165 29 262 7 53 17 123 20 156 4 33 8 67 10 75 2
8 7 42 10 75 4 33 8 67 10 75 2 8 7 39 10 69 4 30 8 63 10 73 2 11 7 47 10 81
3 34 8 69 10 77 4 15 10 60 19 135 3 22 10 73 16 113 5 40 12 94 15 120 3 26
8 58 10 72 2 14 9 63 15 110 6 47 13 96 15 110 2 14 6 45 10 70 3 25 8 56 10
70 3 14 7 48 10 75 4 46 9 81 21 160 13 83 33 107 88 103 35 -3 44 -9 67 -43z
m-310 -138 c-6 -45 -13 -93 -15 -107 -3 -14 -7 -47 -11 -75 -14 -107 -16 -122
-25 -180 -5 -33 -12 -87 -16 -120 -3 -33 -8 -62 -9 -65 -2 -3 -6 -34 -10 -70
-4 -36 -9 -67 -10 -70 -2 -3 -6 -34 -10 -69 -4 -34 -8 -72 -11 -84 -5 -27 -35
-240 -39 -282 -4 -30 -81 -571 -89 -623 -3 -15 -7 -45 -11 -67 -10 -72 -26
-104 -66 -136 -49 -39 -83 -91 -99 -150 -14 -54 -32 -74 -90 -105 -25 -14 -61
-34 -80 -45 -19 -12 -152 -89 -295 -172 -143 -82 -327 -189 -410 -237 -388
-224 -415 -235 -402 -170 4 16 102 195 218 397 116 202 223 388 237 413 14 25
33 57 43 72 11 14 19 28 19 30 0 3 72 130 160 282 88 153 160 282 160 287 0 5
5 9 10 9 6 0 10 4 10 9 0 5 23 49 51 98 28 48 61 104 71 123 11 19 46 80 78
135 32 55 68 119 81 141 34 59 269 466 279 484 45 76 109 186 170 290 40 69
82 139 94 155 21 30 21 30 24 7 2 -13 -1 -61 -7 -105z m1129 -1482 c25 -8 64
-20 87 -25 41 -10 42 -12 166 -223 393 -673 627 -1087 627 -1109 0 -8 -12 -27
-26 -43 -20 -22 -31 -26 -54 -22 -24 5 -986 388 -1085 432 -16 7 -88 37 -160
65 -71 29 -143 58 -160 65 -16 7 -55 22 -85 34 -30 12 -64 26 -75 31 -11 5
-56 23 -100 40 -187 73 -265 112 -265 132 0 13 30 38 103 84 202 129 943 553
967 554 8 0 35 -7 60 -15z m-897 -899 c127 -52 306 -124 397 -161 91 -37 280
-113 420 -170 140 -57 323 -131 405 -165 83 -34 183 -75 224 -91 86 -35 132
-60 125 -70 -2 -4 -131 -8 -287 -9 -346 -3 -3028 0 -3077 3 -64 4 -49 30 57
95 54 33 114 69 133 80 19 11 184 106 365 212 378 220 529 306 599 339 49 23
50 23 118 6 77 -18 124 -14 178 16 24 13 46 18 73 14 20 -3 142 -48 270 -99z
m2060 -557 c101 -40 139 -162 80 -257 -31 -51 -100 -93 -142 -86 -14 2 -40 6
-58 9 -38 7 -88 46 -108 86 -19 36 -19 132 -1 167 42 81 141 116 229 81z
m-4117 -15 c38 -18 83 -67 85 -92 9 -113 3 -142 -37 -184 -44 -45 -104 -59
-189 -45 -80 14 -117 68 -114 164 2 74 14 105 52 141 46 43 132 50 203 16z
m3542 -265 c106 -2 195 -6 197 -9 12 -19 -23 -40 -740 -455 -588 -340 -793
-455 -813 -455 -8 0 -36 14 -62 30 -100 64 -195 62 -300 -5 l-51 -33 -112 61
c-61 33 -267 150 -457 260 -190 110 -361 209 -380 220 -358 203 -600 350 -600
366 0 16 23 19 150 20 68 1 125 3 126 4 4 3 2836 0 3042 -4z"/>
</g>
</svg>
